<?xml version="1.0" encoding="UTF-8" standalone="no"?>
<!-- Created with Inkscape (http://www.inkscape.org/) -->

<svg
   width="17.83386mm"
   height="7.93752mm"
   viewBox="0 0 17.83386 7.93752"
   version="1.1"
   id="svg1"
   inkscape:version="1.3.2 (091e20e, 2023-11-25, custom)"
   xmlns:inkscape="http://www.inkscape.org/namespaces/inkscape"
   xmlns:sodipodi="http://sodipodi.sourceforge.net/DTD/sodipodi-0.dtd"
   xmlns="http://www.w3.org/2000/svg"
   xmlns:svg="http://www.w3.org/2000/svg">
  <sodipodi:namedview
     id="namedview1"
     pagecolor="#ffffff"
     bordercolor="#666666"
     borderopacity="1.0"
     inkscape:showpageshadow="2"
     inkscape:pageopacity="0.0"
     inkscape:pagecheckerboard="0"
     inkscape:deskcolor="#d1d1d1"
     inkscape:document-units="mm"
     inkscape:zoom="0.72426347"
     inkscape:cx="-123.57382"
     inkscape:cy="-224.36587"
     inkscape:window-width="1920"
     inkscape:window-height="1009"
     inkscape:window-x="-8"
     inkscape:window-y="-8"
     inkscape:window-maximized="1"
     inkscape:current-layer="layer1" />
  <defs
     id="defs1" />
  <g
     inkscape:label="Calque 1"
     inkscape:groupmode="layer"
     id="layer1"
     transform="translate(-137.58333,-207.96251)">
    <path
       d="m 141.55243,215.08482 c -1.74185,0 -3.15388,-1.41203 -3.15388,-3.15386 0,-0.73988 0.25526,-1.41986 0.68187,-1.95779 l -0.57649,-0.58338 c -0.57455,0.6885 -0.9206,1.57433 -0.9206,2.54117 0,2.19207 1.77702,3.96907 3.9691,3.96907 0.94993,0 1.82168,-0.33399 2.50491,-0.89059 l -0.5766,-0.58349 c -0.53322,0.41273 -1.20187,0.65887 -1.92831,0.65887 z"
       fill="#ffffff"
       id="path1"
       style="stroke-width:0.264583" />
    <path
       d="m 144.60537,214.45807 0.0448,-0.0456 c 0.54496,-0.67956 0.8713,-1.54199 0.8713,-2.48087 0,-2.19207 -1.77702,-3.96909 -3.96907,-3.96909 -0.94488,0 -1.81239,0.33041 -2.49389,0.88172 -0.19649,0.15897 -0.37764,0.33613 -0.54058,0.52922 -0.005,0.006 -0.009,0.0114 -0.014,0.017 l 0.57649,0.58338 c 0.005,-0.006 0.01,-0.0128 0.0147,-0.019 0.15825,-0.19648 0.33969,-0.37341 0.53996,-0.52702 0.53132,-0.40757 1.19593,-0.65003 1.91734,-0.65003 1.74181,0 3.15386,1.41205 3.15386,3.15388 0,0.73499 -0.25172,1.411 -0.67326,1.9472 -0.1528,0.19434 -0.32771,0.3705 -0.52131,0.5242 -0.0102,0.008 -0.0207,0.0156 -0.031,0.0236 l 0.57661,0.58346 0.67871,0.68683 h 1.09336 z"
       fill="#009845"
       id="path2"
       style="stroke-width:0.264583" />
    <path
       d="m 147.6887,208.13652 h -0.79034 v 7.55679 h 0.79034 z"
       fill="#ffffff"
       id="path3"
       style="stroke-width:0.264583" />
    <path
       d="m 149.83352,210.41701 h -0.78746 v 5.27744 h 0.78746 z"
       fill="#ffffff"
       id="path4"
       style="stroke-width:0.264583" />
    <path
       d="m 149.97941,208.76281 c 0.0477,-0.29347 -0.15166,-0.57 -0.44514,-0.61763 -0.29347,-0.0476 -0.57002,0.15167 -0.61764,0.44515 -0.0476,0.29348 0.15166,0.57002 0.44516,0.61764 0.29348,0.0476 0.56999,-0.15168 0.61762,-0.44516 z"
       fill="#ffffff"
       id="path5"
       style="stroke-width:0.264583" />
    <path
       d="m 144.08354,214.97793 0.006,0.006 z"
       fill="#ffffff"
       id="path6"
       style="stroke-width:0.264583" />
    <path
       opacity="0.5"
       d="m 144.08354,214.97793 0.006,0.006 z"
       fill="#ffffff"
       id="path7"
       style="stroke-width:0.264583" />
    <path
       d="m 144.0778,214.97163 -0.56412,-0.56983 0.5412,0.54406 z"
       fill="#ffffff"
       id="path8"
       style="stroke-width:0.264583" />
    <path
       opacity="0.5"
       d="m 144.0778,214.97163 -0.56412,-0.56983 0.5412,0.54406 z"
       fill="#ffffff"
       id="path9"
       style="stroke-width:0.264583" />
    <path
       d="m 155.36294,210.41302 h -1.09673 l -2.27364,1.993 -0.003,-4.2695 h -0.78745 v 7.55679 h 0.78745 v -2.43684 l 2.33376,2.43684 h 1.09386 l -2.78333,-2.8234 z"
       fill="#ffffff"
       id="path10"
       style="stroke-width:0.264583" />
  </g>
</svg>
