<svg width="267" height="48" viewBox="0 0 267 48" fill="none" xmlns="http://www.w3.org/2000/svg">
  <path
    d="M16.0013 35.919C9.41795 35.919 4.08114 30.5822 4.08114 23.9989C4.08114 21.2025 5.04589 18.6325 6.65828 16.5994L4.47941 14.3945C2.3079 16.9967 1 20.3447 1 23.9989C1 32.2839 7.71629 39.0001 16.0013 39.0001C19.5916 39.0001 22.8864 37.7378 25.4687 35.6341L23.2894 33.4288C21.2741 34.9887 18.7469 35.919 16.0013 35.919Z"
    fill="white" />
  <path
    d="M27.54 33.5502L27.7093 33.3778C29.769 30.8094 31.0024 27.5498 31.0024 24.0013C31.0024 15.7163 24.2861 9 16.0012 9C12.43 9 9.15123 10.2488 6.57546 12.3325C5.83282 12.9333 5.14818 13.6029 4.53234 14.3327C4.51443 14.3539 4.49708 14.3756 4.47931 14.3969L6.65818 16.6018C6.67701 16.578 6.69476 16.5534 6.71378 16.5298C7.31187 15.7872 7.99765 15.1185 8.75457 14.5379C10.7627 12.9975 13.2746 12.0811 16.0012 12.0811C22.5844 12.0811 27.9213 17.418 27.9213 24.0013C27.9213 26.7792 26.9699 29.3342 25.3767 31.3608C24.7992 32.0953 24.1381 32.7611 23.4064 33.342C23.368 33.3725 23.328 33.4011 23.2893 33.4312L25.4686 35.6364L28.0338 38.2323H32.1662L27.54 33.5502Z"
    fill="#009845" />
  <path d="M39.1935 9.65771H36.2064V38.2188H39.1935V9.65771Z" fill="white" />
  <path d="M47.2999 18.2769H44.3237V38.2231H47.2999V18.2769Z" fill="white" />
  <path
    d="M47.8513 12.0248C48.0314 10.9156 47.2781 9.87047 46.1689 9.69045C45.0597 9.51043 44.0145 10.2637 43.8345 11.3729C43.6545 12.4821 44.4077 13.5273 45.517 13.7073C46.6262 13.8873 47.6713 13.134 47.8513 12.0248Z"
    fill="white" />
  <path d="M25.5677 35.515L25.5908 35.5381L25.5677 35.515Z" fill="white" />
  <path opacity="0.5" d="M25.5677 35.515L25.5908 35.5381L25.5677 35.515Z" fill="white" />
  <path d="M25.546 35.4912L23.4139 33.3375L25.4594 35.3938L25.546 35.4912Z" fill="white" />
  <path opacity="0.5" d="M25.546 35.4912L23.4139 33.3375L25.4594 35.3938L25.546 35.4912Z" fill="white" />
  <path
    d="M68.1985 18.2618H64.0534L55.4601 25.7944L55.4493 9.65771H52.4731V38.2188H55.4493V29.0087L64.2698 38.2188H68.4041L57.8844 27.5477L68.1985 18.2618Z"
    fill="white" />
</svg>